<svg width="24" height="25" viewBox="0 0 24 25" fill="currentColor" xmlns="http://www.w3.org/2000/svg">
	<g clip-path="url(#clip0_398_985)">
		<path d="M7.78125 15.6345H20.4846C20.7991 15.6345 21.0751 15.4274 21.1602 15.1267L23.9729 5.32656C24.0333 5.11529 23.9919 4.88834 23.8588 4.71279C23.7255 4.53779 23.5183 4.43444 23.2971 4.43444H6.15802L5.6554 2.18279C5.58398 1.86214 5.29834 1.63446 4.96875 1.63446H0.703125C0.314575 1.63446 0 1.94763 0 2.33445C0 2.72146 0.314575 3.03445 0.703125 3.03445H4.40442L6.94354 14.4094C6.19647 14.7327 5.67188 15.473 5.67188 16.3345C5.67188 17.4924 6.61816 18.4345 7.78125 18.4345H20.4846C20.8733 18.4345 21.1877 18.1215 21.1877 17.7345C21.1877 17.3477 20.8733 17.0345 20.4846 17.0345H7.78125C7.39398 17.0345 7.07813 16.7208 7.07813 16.3345C7.07813 15.9482 7.39398 15.6345 7.78125 15.6345Z" />
		<path d="M7.07812 20.5345C7.07812 21.6926 8.02441 22.6345 9.18768 22.6345C10.3508 22.6345 11.2971 21.6926 11.2971 20.5345C11.2971 19.3766 10.3508 18.4345 9.18768 18.4345C8.02441 18.4345 7.07812 19.3766 7.07812 20.5345Z" />
		<path d="M16.9688 20.5345C16.9688 21.6926 17.915 22.6345 19.0781 22.6345C20.2414 22.6345 21.1875 21.6926 21.1875 20.5345C21.1875 19.3766 20.2414 18.4345 19.0781 18.4345C17.915 18.4345 16.9688 19.3766 16.9688 20.5345Z" />
	</g>
	<defs>
		<clipPath id="clip0_398_985">
			<rect width="24" height="24" transform="translate(0 0.13446)" />
		</clipPath>
	</defs>
</svg>
