<svg width="19" height="34" viewBox="0 0 19 34" fill="currentColor" xmlns="http://www.w3.org/2000/svg">
<path d="M10.6056 6.7692V3.84823L16.6156 2.37486C17.1593 2.24158 17.4877 1.688 17.344 1.14698L17.3036 0.994887C17.1642 0.470002 16.6314 0.152297 16.1034 0.279226L9.16134 1.94796C8.71189 2.056 8.39506 2.45801 8.39506 2.92026V6.7692H1.16699C0.614707 6.7692 0.166992 7.21692 0.166992 7.7692V11.5158H18.8337V7.7692C18.8337 7.21692 18.3859 6.7692 17.8337 6.7692H10.6056Z" />
<path d="M0.25293 13.3414L2.79504 31.1593C2.9424 32.2547 3.9003 33.0579 4.96872 33.0579H13.9214C15.0266 33.0579 15.9477 32.2547 16.095 31.1593L18.6371 13.3414H0.25293Z" />
</svg>
