<svg width="33" height="21" viewBox="0 0 33 21" fill="currentColor" xmlns="http://www.w3.org/2000/svg">
	<path d="M19.9589 14.0427C15.7032 14.0427 11.6924 14.6884 8.36036 15.9099C7.53783 16.2115 6.6816 16.3645 5.81566 16.3644C4.74778 16.3644 3.71302 16.1295 2.76855 15.6968C3.54435 18.6721 6.18678 20.8691 9.31881 20.8691H24.8106C27.9747 20.8691 30.6394 18.6268 31.3843 15.605C31.0826 15.6039 30.7825 15.5608 30.4922 15.476C27.2793 14.5384 23.6369 14.0427 19.9589 14.0427Z" />
	<path d="M10.5408 12.8778C11.87 12.5441 13.2596 12.285 14.6866 12.1021C11.9045 8.96564 11.6453 3.68609 14.1833 0.239746C12.1397 0.304587 10.1447 0.649169 8.28711 1.24478C7.33536 2.1852 6.65994 3.3965 6.35925 4.72809C5.54636 8.03589 7.44295 11.708 10.5408 12.8778Z" />
	<path d="M7.60386 13.7747C4.82169 11.6281 3.3729 7.91744 4.20934 4.21362C4.31487 3.74632 4.45712 3.29092 4.62984 2.84961C3.8926 3.27403 3.19658 3.74617 2.55082 4.26407C-1.4576 7.45991 0.824821 14.1045 5.81605 14.092C6.41007 14.092 7.01367 13.989 7.60386 13.7747Z" />
	<path d="M26.4458 3.56732C25.4727 4.06083 24.6881 4.87073 24.2115 5.88531C23.4101 7.59102 23.6107 9.57405 24.6767 11.0568C24.8416 11.286 25.4472 11.9751 25.5035 12.1316C27.427 12.3843 29.31 12.769 31.0951 13.29C31.466 13.3983 31.8654 13.2993 32.1479 13.029C32.4304 12.7586 32.5553 12.356 32.4773 11.9671C31.803 8.60447 29.5907 5.6642 26.4458 3.56732Z" />
	<path d="M17.69 11.8315C19.2934 11.746 20.92 11.7522 22.5384 11.8491C21.3144 9.77209 21.1581 7.16534 22.2243 4.89598C22.704 3.87489 23.399 2.99704 24.2503 2.31522C22.1117 1.27943 19.6787 0.588299 17.0861 0.335449C13.5774 3.31465 13.9073 9.28487 17.69 11.8315Z" />
</svg>
